HIERARCHY
ROOT Hips
{
  OFFSET -69.4423 88.0299 51.6846
  CHANNELS 6 Xposition Yposition Zposition Zrotation Xrotation Yrotation
  JOINT Spine
  {
    OFFSET 12.0259 -0.162853 1.93176e-005
    CHANNELS 3 Zrotation Xrotation Yrotation
    JOINT Spine1
    {
      OFFSET 15.3169 -0.0121909 0
      CHANNELS 3 Zrotation Xrotation Yrotation
      JOINT Spine2
      {
        OFFSET 15.3176 -0.0121922 0
        CHANNELS 3 Zrotation Xrotation Yrotation
        JOINT Neck
        {
          OFFSET 19.9142 1.56236 0
          CHANNELS 3 Zrotation Xrotation Yrotation
          JOINT Head
          {
            OFFSET 6.92646 0 0
            CHANNELS 3 Zrotation Xrotation Yrotation
            End Site
            {
              OFFSET 20.7666 0 0
            }
          }
          JOINT LeftShoulder
          {
            OFFSET -4.94072 -1.14703 8.14416
            CHANNELS 3 Zrotation Xrotation Yrotation
            JOINT LeftArm
            {
              OFFSET 14.108 0 -2.74767e-005
              CHANNELS 3 Zrotation Xrotation Yrotation
              JOINT LeftForeArm
              {
                OFFSET 28.5802 -0.0783412 -0.0284884
                CHANNELS 3 Zrotation Xrotation Yrotation
                JOINT LeftHand
                {
                  OFFSET 27.092 0 0
                  CHANNELS 3 Zrotation Xrotation Yrotation
                  End Site
                  {
                    OFFSET 9.55928 -0.186424 0.145352
                  }
                }
              }
            }
          }
          JOINT RightShoulder
          {
            OFFSET -7.15748 -1.33027 -6.24935
            CHANNELS 3 Zrotation Xrotation Yrotation
            JOINT RightArm
            {
              OFFSET 14.108 0 1.82997e-005
              CHANNELS 3 Zrotation Xrotation Yrotation
              JOINT RightForeArm
              {
                OFFSET 28.5802 -0.0707221 2.30684e-005
                CHANNELS 3 Zrotation Xrotation Yrotation
                JOINT RightHand
                {
                  OFFSET 27.092 0 -1.30073e-005
                  CHANNELS 3 Zrotation Xrotation Yrotation
                  End Site
                  {
                    OFFSET 9.55929 -0.186417 -0.145354
                  }
                }
              }
            }
          }
        }
      }
    }
  }
  JOINT LeftUpLeg
  {
    OFFSET 0.00499725 -0.534999 8.837
    CHANNELS 3 Zrotation Xrotation Yrotation
    JOINT LeftLeg
    {
      OFFSET 39.9035 -0.00124594 0.000252775
      CHANNELS 3 Zrotation Xrotation Yrotation
      JOINT LeftFoot
      {
        OFFSET 39.6689 0 0
        CHANNELS 3 Zrotation Xrotation Yrotation
        JOINT LeftToe
        {
          OFFSET 10.1624 13.6296 0
          CHANNELS 3 Zrotation Xrotation Yrotation
          End Site
          {
            OFFSET 8.38147 0 0
          }
        }
      }
    }
  }
  JOINT RightUpLeg
  {
    OFFSET 0.00499725 -0.535 -8.837
    CHANNELS 3 Zrotation Xrotation Yrotation
    JOINT RightLeg
    {
      OFFSET 39.9036 -0.000268477 0.000106433
      CHANNELS 3 Zrotation Xrotation Yrotation
      JOINT RightFoot
      {
        OFFSET 39.6689 1.17892e-005 0
        CHANNELS 3 Zrotation Xrotation Yrotation
        JOINT RightToe
        {
          OFFSET 10.1624 13.6296 0
          CHANNELS 3 Zrotation Xrotation Yrotation
          End Site
          {
            OFFSET 8.38147 0 0
          }
        }
      }
    }
  }
}
MOTION
Frames:	18
Frame Time:	0.0333333
-74.3382 88.1858 -65.7815 -96.2906 57.4664 -176.37 1.03833 2.18368 0.756691 2.04991 4.381 1.47539 2.04991 4.38101 1.47538 -13.5792 -4.4608 -13.0386 50.0244 -3.28323 15.6298 -169.221 -6.57165 -95.094 -7.07796 5.2752 85.9047 -18.3211 1.73013 -12.2302 9.39819 -80.7466 11.8375 -169.074 -8.46906 72.6821 -13.808 -1.17108 -82.5769 -22.5741 -2.60671 13.9763 3.78475 82.5603 -3.62259 -22.9257 -0.915842 -177.111 -14.1002 0.582026 -1.87158 -9.27515 3.62371 1.00222 90 1.39149e-015 9.54166e-015 12.0493 -0.347499 -174.795 -13.5404 -0.785583 0.401579 -0.660679 4.49572 0.378692 90 7.95139e-015 9.54166e-015 
-72.3364 88.4652 -63.9634 -96.3547 57.2999 -175.708 0.998258 2.14236 0.587221 1.97656 4.29498 1.13833 1.97656 4.29496 1.13831 -13.6665 -4.50851 -13.2171 50.3943 -3.28792 15.8245 -169.148 -6.67069 -95.235 -7.11859 5.12088 85.6431 -18.2728 1.71998 -12.1963 8.96379 -80.4499 11.4075 -169.043 -8.54604 72.5686 -12.9013 -2.00371 -83.2999 -23.5284 -2.81574 14.4869 4.27993 83.4768 -4.14368 -21.2191 0.184104 -177.974 -13.4243 0.624364 -1.86465 -10.2126 4.98053 1.41991 90 -1.07344e-014 9.54166e-015 10.9791 -0.429926 -175.926 -18.0075 -0.747662 0.283027 -2.45331 4.07082 0.56149 90 1.74931e-014 1.59028e-014 
-70.3675 88.6747 -61.9683 -95.8701 56.9953 -176.368 0.930401 1.97198 0.591134 1.84201 3.95371 1.15132 1.84201 3.95369 1.1513 -13.719 -4.29575 -12.9781 50.7868 -2.96977 15.4627 -169.033 -6.42659 -95.0597 -6.96484 5.43625 85.5072 -18.5184 1.75488 -12.3139 9.06481 -80.6338 11.4924 -168.948 -8.24649 72.801 -12.368 -3.20257 -84.022 -24.2254 -2.96683 14.8505 4.48743 84.0613 -4.36813 -19.3644 1.56992 -177.663 -13.4878 0.674156 -1.82997 -10.0648 6.9332 2.0421 90 -1.94809e-014 -1.90833e-014 9.35071 -1.12829 -176.273 -23.6635 -0.703398 0.119412 -5.18254 2.58298 0.555622 90 -2.22639e-014 -0 
-68.2975 88.9275 -60.0244 -95.2111 56.8126 -176.507 0.742241 2.13377 0.288208 1.47527 4.27161 0.549442 1.47525 4.27158 0.549438 -12.1108 -4.93454 -11.855 50.3021 -3.62737 15.8461 -170.616 -6.53521 -94.0667 -9.40344 6.61788 84.2284 -18.7323 1.7596 -12.3632 9.94486 -81.3453 12.4011 -170.54 -8.30866 73.9251 -10.8526 -4.84548 -85.6632 -24.7202 -3.07361 15.0972 4.68793 84.386 -4.57059 -17.0917 4.04985 -178.05 -13.0181 0.745247 -1.77632 -9.91619 10.4064 3.08978 90 1.19271e-014 1.27222e-014 6.38387 -2.17441 -177.613 -30.9748 -0.613782 -0.0606449 -10.1145 0.163251 0.270514 90 1.27222e-014 1.27222e-014 
-66.1637 89.0656 -58.1637 -94.5534 56.5426 -176.231 0.776372 1.91047 0.189566 1.54771 3.82377 0.353645 1.54768 3.82379 0.353639 -12.4459 -4.59918 -12.0685 50.4707 -3.26885 15.3933 -170.236 -6.26606 -94.3076 -9.71826 6.44231 84.2753 -18.9896 1.79249 -12.5006 8.75954 -80.222 11.1403 -170.183 -8.04165 73.6924 -10.8549 -5.59136 -85.2501 -24.8196 -3.09261 15.1399 4.21704 83.9861 -4.09737 -14.3787 5.71136 -179.319 -12.0689 0.810972 -1.72594 -9.86484 12.992 3.79435 90 1.43125e-014 6.36111e-015 2.41164 -3.23775 -179.666 -38.6918 -0.448016 -0.203237 -17.9351 -1.8483 -0.194362 90 -1.90833e-014 1.59028e-015 
-64.0588 89.1238 -56.4742 -93.6111 56.539 -175.93 0.895352 1.69624 0.00786948 1.79165 3.39291 -0.0106411 1.79165 3.39289 -0.0106602 -12.8269 -4.32031 -12.0727 50.5019 -3.07627 14.9171 -169.804 -6.00515 -94.3521 -11.8109 6.46619 84.2865 -19.8632 1.91152 -12.976 10.0459 -81.6422 12.4672 -169.738 -7.81686 73.6943 -10.6207 -5.54997 -84.6929 -24.6459 -3.04705 15.0348 3.94837 83.962 -3.82915 -11.1432 5.83088 178.82 -10.3192 0.853505 -1.70294 -10.1932 13.2128 3.82253 90 1.51076e-014 1.59028e-014 -2.51057 -3.63982 177.854 -47.3445 -0.277064 -0.275601 -24.5897 -4.15349 -1.49622 90 -9.54166e-015 -1.11319e-014 
-62.1345 89.155 -54.8036 -92.5767 56.4099 -175.558 0.996817 1.54544 -0.227464 2.00088 3.08718 -0.481904 2.00086 3.08715 -0.481921 -13.0065 -4.19522 -12.4036 50.6209 -2.76445 15.0696 -169.619 -5.90684 -94.6998 -14.1699 6.34676 83.726 -20.5221 1.99572 -13.3221 11.5099 -82.6829 14.0416 -169.579 -7.82031 73.3907 -9.9422 -5.46774 -84.5886 -24.6141 -3.04937 15.0339 4.84033 84.8518 -4.74497 -6.96168 5.61657 176.774 -6.69175 0.872113 -1.70189 -11.4126 13.0765 3.8141 90 5.56597e-015 -9.54166e-015 -7.13618 -3.49498 175.611 -55.696 -0.1039 -0.264459 -24.154 -2.54281 -0.544484 90 -6.36111e-015 7.95139e-015 
-60.2307 89.2944 -53.0146 -91.4833 56.3705 -175.604 1.13653 1.33477 -0.346323 2.28207 2.6628 -0.719211 2.28205 2.6628 -0.719219 -13.2655 -3.91147 -12.4451 50.8409 -2.54913 14.5444 -169.22 -5.53649 -94.6861 -13.4758 4.2405 83.1938 -19.8819 1.90447 -13.0227 12.8434 -82.5782 15.3247 -169.264 -7.62908 73.2742 -8.66814 -4.71554 -83.9436 -24.1716 -2.95801 14.8056 4.7828 84.6933 -4.69601 -2.94675 5.25639 175.135 -3.89913 0.898909 -1.67249 -11.0327 13.2035 3.62507 90 -7.95139e-016 -0 -11.2175 -2.57537 174.207 -61.9018 -0.0120175 -0.186405 -18.9293 0.866654 1.08836 90 -6.36111e-015 4.77083e-015 
-58.5453 89.2971 -51.1533 -90.4955 56.213 -176.323 1.1681 1.07976 -0.251866 2.34157 2.15464 -0.525683 2.34156 2.15462 -0.525701 -12.956 -3.49233 -12.5635 50.7876 -2.34115 13.4527 -169.441 -4.98517 -94.9909 -13.9788 3.82401 83.3653 -21.1277 2.10163 -13.7171 11.6958 -82.71 14.3064 -169.489 -7.13972 73.0371 -7.5912 -4.48879 -83.2482 -23.8056 -2.88205 14.6113 4.63016 84.5063 -4.54498 -0.480917 4.75808 174.633 -3.57296 0.940234 -1.62575 -9.42325 13.1924 3.28214 90 3.97569e-015 1.59028e-014 -14.8506 -1.68149 173.94 -65.2844 0.0287326 -0.104717 -14.6209 3.94412 2.0003 90 -1.27222e-014 -4.77083e-015 
-56.9333 89.1877 -49.3196 -89.7158 55.7995 -176.965 1.18123 0.742706 -0.259855 2.36613 1.48036 -0.534874 2.36611 1.48039 -0.534885 -12.9605 -3.12312 -12.2658 51.2547 -1.97883 12.6645 -169.344 -4.50624 -94.8408 -14.4461 4.01291 82.7467 -22.3063 2.29004 -14.3374 13.0865 -83.8233 15.5758 -169.382 -6.70489 73.294 -7.02537 -4.24906 -83.3317 -23.7032 -2.86146 14.5549 4.3855 84.1808 -4.299 0.753047 4.07102 174.396 -5.03145 0.996405 -1.54078 -7.28574 12.9808 2.76392 90 4.37326e-015 6.36111e-015 -18.2754 -0.896064 174.008 -66.2857 0.00301373 -0.0286787 -10.4547 5.14072 1.84882 90 1.90833e-014 1.59028e-014 
-55.4061 88.8925 -47.507 -89.2346 55.2178 -177.369 1.23464 0.416311 -0.212928 2.47092 0.828383 -0.434648 2.47092 0.828368 -0.434655 -13.429 -2.82891 -12.3233 51.5401 -1.85223 12.0984 -168.829 -4.2587 -94.9873 -14.908 3.7237 82.3407 -23.5559 2.476 -15.027 9.13626 -84.1308 11.4173 -168.876 -6.5338 73.2466 -7.69318 -4.13139 -82.97 -23.6906 -2.85631 14.5509 4.84206 84.632 -4.75145 0.761274 3.30862 174.225 -8.58274 1.0515 -1.40858 -3.94597 12.3199 2.03589 90 -9.14409e-015 -6.36111e-015 -21.4861 -0.366445 174.152 -65.0792 -0.0437647 0.0403952 -6.32236 5.50955 1.33576 90 -2.8625e-014 -1.90833e-014 
-53.898 88.5011 -45.7059 -88.9844 54.6248 -177.415 1.26909 0.201887 -0.196524 2.53889 0.399875 -0.397336 2.5389 0.399863 -0.397345 -13.4826 -2.75579 -12.3045 51.2855 -1.96079 11.8016 -168.765 -4.13356 -95.0765 -17.0467 3.75398 82.0516 -25.0104 2.73946 -15.7962 14.2632 -85.488 16.6183 -168.795 -6.47915 73.268 -8.10437 -3.90298 -82.5404 -23.2627 -2.76324 14.3233 5.06654 84.756 -4.97621 0.880275 2.80692 173.91 -11.7082 1.09048 -1.29296 -1.23194 11.8301 1.57624 90 -2.38542e-015 -9.54166e-015 -24.3576 -0.0531225 174.096 -61.7574 -0.0779958 0.131622 -3.0929 5.92206 0.939082 90 -2.06736e-014 -6.36111e-015 
-52.4479 88.2236 -43.9412 -89.2615 53.9424 -176.933 1.23912 0.0338723 -0.222387 2.4784 0.0634185 -0.445289 2.47838 0.0634041 -0.445303 -12.931 -2.88095 -11.6037 50.3287 -2.61077 11.1104 -169.256 -3.92125 -94.5035 -18.3671 3.61386 81.5513 -26.0497 2.92227 -16.3431 12.5098 -85.4164 14.9101 -169.294 -6.32783 73.9535 -7.34991 -4.00261 -82.6437 -23.9084 -2.90252 14.6628 4.59921 84.6805 -4.51694 1.8823 2.6161 173.577 -12.4776 1.1112 -1.22001 0.403856 12.1061 1.3456 90 1.19271e-014 6.36111e-015 -26.6769 -0.234161 173.844 -56.1611 -0.0950096 0.252346 -1.57792 6.76617 0.877253 90 9.54166e-015 -6.36111e-015 
-51.0748 88.0878 -42.0559 -89.791 53.1344 -176.472 1.28103 -0.265721 -0.146258 2.56144 -0.534171 -0.286383 2.56144 -0.534179 -0.286397 -13.5844 -2.61483 -11.8797 50.5616 -2.27826 10.9686 -168.557 -3.77756 -94.8176 -19.2219 2.85784 81.31 -26.7642 3.05864 -16.734 15.8233 -86.3175 18.2272 -168.622 -6.23677 73.6698 -7.55276 -3.55961 -82.356 -23.9701 -2.91763 14.6977 4.3928 84.5011 -4.31698 3.76295 2.19291 173.593 -11.1333 1.11999 -1.20878 0.756929 12.3709 1.27663 90 -1.27222e-014 -2.22639e-014 -28.3837 -0.860028 173.831 -48.7261 -0.104569 0.404255 -1.50766 8.00837 1.13622 90 -2.8625e-014 -2.22639e-014 
-49.6818 88.0096 -40.1873 -90.5658 52.3759 -175.59 1.20241 -0.403024 -0.184125 2.40362 -0.809307 -0.359612 2.4036 -0.809322 -0.359627 -13.6369 -2.67748 -11.9945 50.8387 -2.30726 11.1468 -168.516 -3.8254 -94.9417 -20.0052 2.62057 80.9123 -27.2378 3.14626 -16.9875 16.5455 -86.5921 18.9534 -168.6 -6.33248 73.5791 -7.0388 -3.46083 -82.5338 -23.6533 -2.84843 14.5286 4.24006 84.1915 -4.14777 6.10365 2.04987 173.367 -8.92409 1.12609 -1.21402 0.987166 12.7503 1.20642 90 -1.35174e-014 6.36111e-015 -29.6267 -1.51673 173.601 -40.3311 -0.0773393 0.556599 -4.45617 8.26472 1.83806 90 -7.95139e-016 -1.59028e-014 
-48.2535 87.9894 -38.2365 -90.9224 51.2745 -174.914 1.23085 -0.623014 -0.195936 2.4598 -1.24954 -0.378331 2.45979 -1.24955 -0.378351 -14.0732 -2.59635 -12.6628 51.2727 -1.82828 11.7703 -168.1 -3.94616 -95.5741 -20.5774 2.02013 80.6764 -27.4668 3.18864 -17.1253 15.8845 -86.5184 18.2527 -168.223 -6.50168 72.9351 -6.78108 -3.19628 -82.5284 -23.3809 -2.79277 14.3886 4.36805 84.2636 -4.26631 8.66305 0.562814 173.173 -6.27176 1.12868 -1.28901 0.159101 12.2111 1.2786 90 6.36111e-015 3.49861e-014 -30.1929 -2.33664 173.018 -31.4157 -0.0474544 0.728824 -7.36249 6.37846 1.92464 90 1.35174e-014 3.18055e-015 
-46.8303 87.8604 -36.1848 -91.2157 50.4027 -174.323 1.26698 -0.732835 -0.166943 2.53215 -1.46873 -0.317515 2.53214 -1.46869 -0.317538 -13.9811 -2.71975 -13.0752 50.9113 -2.14297 11.8743 -168.208 -4.07674 -95.9598 -21.1163 1.36466 80.7732 -27.493 3.19379 -17.1573 14.9711 -86.2576 17.3348 -168.364 -6.64699 72.5042 -6.16998 -2.91454 -82.354 -23.0803 -2.72722 14.2247 4.00649 83.9633 -3.90032 12.2106 -1.07145 172.946 -1.84097 1.10523 -1.46816 -1.42182 11.2558 1.48879 90 -4.77083e-015 -1.27222e-014 -30.1004 -1.06767 172.878 -24.3408 -0.0371491 0.864098 -6.28446 5.06776 1.39435 90 2.18663e-015 2.22639e-014 
-45.3654 87.7022 -34.0774 -91.5836 49.3505 -173.533 1.21833 -0.894332 -0.273348 2.43284 -1.79379 -0.527569 2.43284 -1.79378 -0.527579 -13.8442 -2.7214 -12.9213 50.9722 -2.19399 11.7108 -168.327 -3.99796 -95.805 -21.2513 1.38864 80.5497 -27.3809 3.17349 -17.0914 14.7011 -86.0367 17.0891 -168.487 -6.56678 72.6391 -5.8234 -2.96581 -82.7997 -22.5651 -2.61911 13.9527 3.73177 83.352 -3.61585 13.2637 -2.63444 172.857 -1.8194 1.10669 -1.47076 -1.27527 10.8882 1.40605 90 -5.56597e-015 -3.18055e-015 -30.1502 1.21167 172.77 -21.0299 -0.0235954 0.911809 -3.99668 6.43706 1.44184 90 -2.88238e-014 -2.8625e-014 
